<mxfile host="app.diagrams.net" modified="2020-11-18T19:45:51.871Z" agent="5.0 (Windows NT 10.0; Win64; x64) AppleWebKit/537.36 (KHTML, like Gecko) Chrome/86.0.4240.198 Safari/537.36" etag="HXO46wsonDET4qxHPrlf" version="13.9.9" type="github">
  <diagram id="qAfx3NIFliUu1UtpdsV_" name="Page-1">
    <mxGraphModel dx="2048" dy="645" grid="1" gridSize="10" guides="1" tooltips="1" connect="1" arrows="1" fold="1" page="1" pageScale="1" pageWidth="827" pageHeight="1169" math="0" shadow="0">
      <root>
        <mxCell id="0" />
        <mxCell id="1" parent="0" />
        <mxCell id="cbpW98nKaiFozJ9u85xd-94" value="v" style="verticalLabelPosition=bottom;verticalAlign=top;html=1;shadow=0;dashed=0;strokeWidth=1;shape=rect;fontSize=10;align=left;" vertex="1" parent="1">
          <mxGeometry x="175.5" y="407.5" width="193" height="333" as="geometry" />
        </mxCell>
        <mxCell id="cbpW98nKaiFozJ9u85xd-38" value="v" style="verticalLabelPosition=bottom;verticalAlign=top;html=1;shadow=0;dashed=0;strokeWidth=1;shape=rect;fontSize=10;align=left;" vertex="1" parent="1">
          <mxGeometry x="-114" y="407.5" width="193" height="333" as="geometry" />
        </mxCell>
        <mxCell id="cbpW98nKaiFozJ9u85xd-1" value="" style="verticalLabelPosition=bottom;verticalAlign=top;html=1;shadow=0;dashed=0;strokeWidth=1;shape=rect;fontSize=10;align=left;" vertex="1" parent="1">
          <mxGeometry x="-534" y="182.5" width="193" height="333" as="geometry" />
        </mxCell>
        <mxCell id="cbpW98nKaiFozJ9u85xd-2" value="&lt;font color=&quot;#000000&quot; style=&quot;font-size: 24px&quot;&gt;Login Activity&lt;/font&gt;" style="text;html=1;strokeColor=none;fillColor=none;align=center;verticalAlign=middle;whiteSpace=wrap;rounded=0;shadow=0;fontSize=24;fontColor=#FFFFFF;" vertex="1" parent="1">
          <mxGeometry x="-538" y="106.5" width="210" height="40" as="geometry" />
        </mxCell>
        <mxCell id="cbpW98nKaiFozJ9u85xd-3" value="" style="verticalLabelPosition=bottom;verticalAlign=top;html=1;shadow=0;dashed=0;strokeWidth=1;shape=mxgraph.android.phone2;strokeColor=#56517e;fillColor=#d0cee2;fontSize=24;align=left;" vertex="1" parent="1">
          <mxGeometry x="-538" y="155.5" width="200" height="390" as="geometry" />
        </mxCell>
        <mxCell id="cbpW98nKaiFozJ9u85xd-4" value="&lt;b&gt;MovieMatch&lt;br&gt;&lt;font style=&quot;font-size: 10px&quot;&gt;Login using local account&lt;/font&gt;&lt;br&gt;&lt;/b&gt;" style="text;html=1;strokeColor=none;fillColor=none;align=center;verticalAlign=middle;whiteSpace=wrap;rounded=0;fontSize=22;" vertex="1" parent="1">
          <mxGeometry x="-506" y="205.5" width="138" height="40" as="geometry" />
        </mxCell>
        <mxCell id="cbpW98nKaiFozJ9u85xd-5" value="Sign Up" style="rounded=1;html=1;shadow=0;dashed=0;whiteSpace=wrap;fontSize=13;align=center;strokeColor=none;gradientColor=none;arcSize=30;fillColor=#007FFF;fontColor=#FFFFFF;" vertex="1" parent="1">
          <mxGeometry x="-508" y="424.5" width="140" height="30" as="geometry" />
        </mxCell>
        <mxCell id="cbpW98nKaiFozJ9u85xd-6" value="Sign In" style="rounded=1;html=1;shadow=0;dashed=0;whiteSpace=wrap;fontSize=13;align=center;strokeColor=none;gradientColor=none;arcSize=30;fillColor=#007FFF;fontColor=#FFFFFF;" vertex="1" parent="1">
          <mxGeometry x="-508" y="387.5" width="140" height="30" as="geometry" />
        </mxCell>
        <mxCell id="cbpW98nKaiFozJ9u85xd-7" value="Forgot password?" style="text;html=1;strokeColor=none;fillColor=none;align=left;verticalAlign=middle;whiteSpace=wrap;rounded=0;fontSize=12;" vertex="1" parent="1">
          <mxGeometry x="-516.5" y="364" width="160" height="20" as="geometry" />
        </mxCell>
        <mxCell id="cbpW98nKaiFozJ9u85xd-8" value="" style="group" vertex="1" connectable="0" parent="1">
          <mxGeometry x="-516.5" y="316" width="160" height="50" as="geometry" />
        </mxCell>
        <mxCell id="cbpW98nKaiFozJ9u85xd-9" value="&lt;font style=&quot;font-size: 12px&quot; color=&quot;#b3b3b3&quot;&gt;Enter password&lt;/font&gt;" style="strokeWidth=1;html=1;shadow=0;dashed=0;shape=mxgraph.android.textfield;align=left;strokeColor=#999999;pointerEvents=1;fontSize=12;" vertex="1" parent="cbpW98nKaiFozJ9u85xd-8">
          <mxGeometry x="1.0453962089343995e-13" y="20" width="159.9999999999999" height="30" as="geometry" />
        </mxCell>
        <mxCell id="cbpW98nKaiFozJ9u85xd-10" value="Password" style="text;html=1;strokeColor=none;fillColor=none;align=left;verticalAlign=middle;whiteSpace=wrap;rounded=0;fontSize=14;" vertex="1" parent="cbpW98nKaiFozJ9u85xd-8">
          <mxGeometry width="64.36781609195398" height="20" as="geometry" />
        </mxCell>
        <mxCell id="cbpW98nKaiFozJ9u85xd-11" value="&lt;font style=&quot;font-size: 12px;&quot; color=&quot;#b3b3b3&quot;&gt;Enter email&lt;/font&gt;" style="strokeWidth=1;html=1;shadow=0;dashed=0;shape=mxgraph.android.textfield;align=left;strokeColor=#999999;pointerEvents=1;fontSize=12;" vertex="1" parent="1">
          <mxGeometry x="-516.5" y="280" width="159.99999999999994" height="30" as="geometry" />
        </mxCell>
        <mxCell id="cbpW98nKaiFozJ9u85xd-12" value="Email" style="text;html=1;strokeColor=none;fillColor=none;align=left;verticalAlign=middle;whiteSpace=wrap;rounded=0;fontSize=14;" vertex="1" parent="1">
          <mxGeometry x="-516.5" y="260" width="64.367816091954" height="20" as="geometry" />
        </mxCell>
        <mxCell id="cbpW98nKaiFozJ9u85xd-13" value="" style="shape=image;verticalLabelPosition=bottom;labelBackgroundColor=#ffffff;verticalAlign=top;aspect=fixed;imageAspect=0;image=data:image/png,iVBORw0KGgoAAAANSUhEUgAAAggAAAH9CAYAAAB/S4RUAAAgAElEQVR4Xu2dB3RV1baG/31KctIDIZWQBPCqKFZUsBdsoKggKgIWFFRUFLsXsaBiQVHBgoigIIiAICiK2MtVUZ9eexdIIARCekg9Zb+xD9d7bZDk7LbW3v8ag5H3dK05//nNfc3PLmsp4CABEiABEiABEiCBPxFQSIQESIAESIAESIAE/kyABoHXBAmQAAmQAAmQwF8I0CDwoiABEiABEiABEqBB4DVAAiRAAiRAAiTQNgHeQWibEWeQAAmQAAmQgOsI0CC4ruUsmARIgARIgATaJkCD0DYjziABEiABEiAB1xGgQXBdy1kwCZAACZAACbRNgAahbUacQQIkQAIkQAKuI0CD4LqWs2ASIAESIAESaJsADULbjDiDBEiABEiABFxHgAbBdS1nwSRAAiRAAiTQNgEahLYZcQYJkAAJkAAJuI4ADYLrWs6CSYAESIAESKBtApYbhLePOsqXmdjQJRD2JYfj4ItrWyNnkAAJkAAJkICrCLQEg2rA72ltaPXW7rH6o2oFUK0GYIlB+PXYPmneeN/+YVUZrQJDAASsLpT5SIAESIAESEBSAqUK1HmRcGRBS2rDz72XfNdqRR2mGoRvjjoqOT6h8QpF8UwC4LOiIOYgARIgARIgAQcT2KxEwiNLmpPePfqdd0Jm1mmaQfjp+H59vT68qQJJZhbA2CRAAiRAAiTgQgJfN4QaD97nta8azKrdFIPwy8C+UwDlWgCmxDcLBuOSAAmQAAmQgCwEFKAxEg4f9I/Vn35rhmbDf4H/fGK/ZxQPRtAcmNEuxiQBEiABEiCBPxBoDUYiR/V69ZOPjOZiqEH49aS+41VVeYDmwOg2MR4JkAAJkAAJ/D0BBWpDa4ta2OvNTyqNZGSYQfh5QN98RVE2GCmOsUiABEiABEiABNpBQMWGXVatKWjHzHZPMcQgqBf18a/d6PtRhdK93Zk5kQRIgARIgARIwDgCKibusmrNZKMCGmIQfhp44BEeeN81ShTjkAAJkAAJkAAJdJxAjTeYdMBLnzV2fOVfV+g2CCrg+XVgv28A9DJCEGOQAAmQAAmQAAnERiCsRs7bbdUn82Jb/cdVug3CdwMPKYxDZL0RYhiDBEiABEiABEhADwG14vOkgpwzlywJ64mirdVtEH4ZeOCJgHeVXiFcTwIkQAIkQAIkoJ9A2BvM3O2lzyr0RtJtEH4d2O8BFbhKrxCuJwESIAESIAES0E9A8ai79lz58c96I+k2CL8M7PcvAIfqFcL1JEACJEACJEAC+gkoUAb1fOWjlXoj6TYIvw7su5afN+ptA9eTAAmQAAmQgDEEVBWX/mPVmhl6o+k2CL8M7KdtjpSvVwjXkwAJkAAJkAAJ6CcQgTp+11c+nqY3Eg2CXoJcTwIkQAIkQAICEaBBEKgZlEICJEACJEACohCgQRClE9RBAiRAAiRAAgIRoEEQqBmUQgIkQAIkQAKiEKBBEKUT1EECJEACJEACAhGgQRCoGZRCAiRAAiRAAqIQoEEQpRPUQQIkQAIkQAICEaBBEKgZlEICJEACJEACohCgQRClE9RBAiRAAiRAAgIRoEEQqBmUQgIkQAIkQAKiEKBBEKUT1EECJEACJEACAhGgQRCoGZRCAiRAAiRAAqIQoEEQpRPUQQIkQAIkQAICEaBBEKgZlEICJEACJEACohCgQRClE9RBAiRAAiRAAgIRoEEQqBmUQgIkQAIkQAKiEKBBEKUT1EECJEACJEACAhGgQRCoGZRCAiRAAiRAAqIQoEEQpRPUQQIkQAIkQAICEaBBEKgZlEICJEACJEACohCgQRClE9RBAiRAAiRAAgIRoEEQqBmUQgIkQAIkQAKiEKBBEKUT1EECJEACJEACAhGgQRCoGZRCAiRAAiRAAqIQoEEQpRPUQQIkQAIkQAICEaBBEKgZlEICJEACJEACohCgQRClE9RBAiRAAiRAAgIRoEEQqBmUQgIkQAIkQAKiEKBBEKUT1EECJEACJEACAhGgQRCoGZRCAiRAAiRAAqIQoEEQpRPUQQIkQAIkQAICEaBBEKgZlEICJEACJEACohCgQRClE9RBAiRAAiRAAgIRoEEQqBmUQgIkQAIkQAKiEKBBEKUT1EECJEACJEACAhGgQRCoGZRCAiRAAiRAAqIQoEEQpRPUQQIkQAIkQAICEaBBEKgZlEICJEACJEACohCgQRClE9RBAiRAAiRAAgIRoEEQqBmUQgIkQAIkQAKiEKBBEKUT1EECJEACJEACAhGgQRCoGZRCAiRAAiRAAqIQoEEQpRPUQQIkQAIkQAICEaBBEKgZlEICJEACJEACohCgQRClE9RBAiRAAiRAAgIRoEEQqBmUQgIkQAIkQAKiEKBBEKUT1EECJEACJEACAhGgQRCoGZRCAiRAAiRAAqIQoEEQpRPUQQIkQAIkQAICEaBBEKgZlEICJEACJEACohCgQRClE9RBAiRAAiRAAgIRoEEQqBmUQgIkQAIkQAKiEKBBEKUT1EECJEACJEACAhGgQRCoGZRCAiRAAiRAAqIQoEEQpRPUQQIkQAIkQAICEaBBEKgZlEICJEACJEACohCgQRClE9RBAiRAAiRAAgIRoEEQqBmUQgIkQAIkQAKiEKBBEKUT1EECOyCgxMXDm94J3pRUeFLS4ElKhjcpGZ60dPjSO8Oj/bukFHgSE6EEEuFJTIInIRHw+aB4vdE/8G7/vzl0ElBVNH39OcofmozQljKdwbicBMQmQIMgdn+ozg0EPB5409Lh7ZQR/YXvy8pBXGEPxBX1RFy3oug/57CfQLimCpXzZqJ+9Yv2i6ECErCAAA2CBZCZggR+I6D97d6b1gnejC5I2Ht/JPTeD4HdekMJBAhJUAJqOISGD99F+YN3Qm1pFlQlZZGA8QRoEIxnyogkECWg+HzwpKTCl5GF5COPRdLBR8Gf25V0JCIQqizH5skT0PLjtxKpplQSMIYADYIxHBmFBLY/748PIG6X3ZA+ZAQSDzgYiqKQjIQE1FAINcueRdXcGRKqp2QSMIYADYIxHBnFxQT83YrQeeQYJB9yFODxuJiEM0oPlW/GhivOQ6S+zhkFsQoSiJEADUKM4LjMxQQ8HqQedzI6nX1B9OVC7SsDDmcQKLv1GjR+vgaIRJxREKsgAR0EaBB0wONS9xBQ4uORfupZSDnhVPg6Z9AUOKz1DZ9+iPKpk3jXwGF9ZTn6CNAg6OPH1U4moN0pOOEUpA4cHP3cUPHHOblaV9YWrq1B2e3XoeWHb1xZP4smgZ0RoEHg9UECfyIQ6LUX0oeOjH6C6ElOIR8HElAjEdQsnoea559BpKnRgRWyJBLQT4AGQT9DRnAAAe2TxLRThyGl/wDEFXQH+PWBA7r69yU0//gdKh65Fy1rf3JsjSyMBIwgQINgBEXGkJaALycP6YPPjr50qH2iyOFcAtqdgsqnH0P9quVQw2HnFsrKSMAgAjQIBoFkGLkIBHbbE2mDz0by4f3lEk61MRHY9uE7qJj5AMIVW2Naz0Uk4EYCNAhu7Lpba1YUBHbvjU7DRkU3MeJwPgFtT4OKWdPQ8OE7zi+WFZKAwQRoEAwGynBiEojr8Q9kXHA5Evc7SEyBVGUsATWC+rdfw9bpd0ENBo2NzWgk4BICNAguabRby/RlZqPL2GuR1PcwtyJwXd3B0g3YNPEKaHcPOEiABGInQIMQOzuuFJiAJyEB6Weej05nnGPZFwnaqX9qYyPCjQ1oXfczmr79EsEN66H9woo0bIMabIXi9UFJSIQvIxP+vPzosc4Je+0HX5es6D/3BBIs0ytw+2KSpra2oHrpAlTPnxXTei4iARL4IwEaBF4RziKgKNHHCDm33gfF5ze9Nu2XfvMvP6L2hWfR8NF7urfo9aSmI23QGUg/9UwogYToAVAyj+DmTahduRRQTd66OBJB3asroJkEDhIgAWMI0CAYw5FRBCCgbYdcMGcZfOmdTVfT9PXnKL9vEkLVFbpNwd+KVZTo3YbUE09Bxpjx0aOjZR3Nv/yA0itHySqfuknAtQRoEFzbegcVrijRg5M6nXW+qb9II40N2PrY/Whc8561u+95vdFHEtnXTUJgj72lbFyoohwlF54O7RhlDhIgATkI0CDI0Seq3AEBX3Ye8u6aDn9OV9MYhasqsOX+SWj+/iuora2m5WlPYG1jp8xxNyJx3wPbM12oOZFt9Si5bCTCFeVC6aIYEiCBvydAg8ArQ1oC6Weci87DRkEJmLMDovZi4dYZU9HwwVu2G4M/NElREP+PXsi6cgLiinpK1T/tDkLZrVej6YtPpdJNsSTgRgI0CG7suuQ1e1LTkHPjnUjY5wDTKql9aQmqFz6FcG21aTn0Blbi4pFy/CBkXjQekOllRlWNPqqpe2WZXgRcTwIkYCIBGgQT4TK08QQS9umDrKtuhra/gRkjXF2FLffdiqYv/8+M8KbE9HcrQvY1t0TvKsg0Kuc+jprFc2WSTK0k4CoCNAiuarfcxaadciYyRl0GJS7OlEIa1ryH8ocmI1JfZ0p8M4NqTDqff1n080iZRvXCOaha8CSgqjLJplYScAUBGgRXtFnyIj0eZF5+A1JPOMW0QmpeWIiqpx6V/pS/lONOjr6bINNx1dWL56Jq3kyaBNOubgYmgdgI0CDExo2rLCKgHcGcd+c08z7vi0RQ8eR01K5YZFFF5qeJ674Luk55HJ7EJPOTGZSh+rmnUKXtgMg7CQYRZRgS0E+ABkE/Q0YwiYD2C67bo/Phy8oxJYMaDmPrtLtQ/+YrpsS3M6g3LR35jzwDX+cudsroUG7tUUP1s7M7tIaTSYAEzCNAg2AeW0bWQcCbmo6Cp5ZtP5vAhKGZg4onHkLdyudNiC5GSO3uS8HMhfBlmmOwzKhS64mT7uaYwYgxScAqAjQIVpFmnnYTiJqDuSvgMellRO02ds3yRah8clq7Nck6UfsUsuCJRaZ99WEGl813TUDDB2+bEZoxSYAEOkCABqEDsDjVfAKe5BQUPvMSPHHxpiVr/GwNym65yrT4ogXWToksnLMM3tQ00aT9rR7t7s6GS0cguLFYCr0USQJOJUCD4NTOSliX9s6B9ovMk5Jqmvrg5lKUjDkLiIRNyyFiYO046YJZi6HdUZBhaLtYrh8+gGc3yNAsanQsARoEx7ZWrsK0X1z5D89FXH6hecJVFRvGnYvWdb+Yl0PgyNpBT9rXDbJ8AqkdFa0d8MRBAiRgDwEaBHu4M+vvCSgK8iY/DG2XRDNH9fPPoOqpx8xMIXzs1BNPQ+a4G4TX+ZvAhs8+wuZbrpZGL4WSgJMI0CA4qZuS1pJ5xT9N3QRJw6L9bVR7rq22NEtKySDZioIuF12FtFPOMCigyWFUFeXap6ivrzQ5EcOTAAn8mQANAq8JWwmkDRmOLheOM13D5rtvQsO/3jI9jwwJtE9H8+59FPG7SHJ2g6qi+NxTEKqqkAEvNZKAYwjQIDimlfIVktinH3JumQLF5zdVfMvPP2Dj1RcCkYipeWQK7s/NR7fHF0Lx+aSQHSovQ8nFZ0NtbZFCL0WSgBMI0CA4oYsS1uDLyET+tKfg7ZRhunrtk0bt00aOPxJIPuJYZN9whzRYuNOiNK2iUIcQoEFwSCOlKkNR0HXqLAR229N02cFNG1FyyTAg7K7PGtsF1uNBzs33Iumgw9o1XYRJ2nskrcVrRZBCDSTgeAI0CI5vsXgFZlxwOdJPH2GJsM33TETD+29akkvGJNqeE0XPrITiN/cxj1FsNHOw8cpRUIOtRoVkHBIggR0QoEHgpWEpgbiinsif/jQUr/nPvrUd+YpHnoRwXa2lNcqWLLHv4ci9ZYo0sssfvAP1bzjvgC1pGkChriFAg+CaVgtQqMeLomdegje9kyVi6la/iK3T77Ykl9RJFA8KZi+BPztPijLUYBDrzx2ECI2fFP2iSHkJ0CDI2zvplGddeytSjj7RMt0brzgPLb/+ZFk+qRP5fOix7B0oXq8UZVQvXYCqOY9IoZUiSUBWAjQIsnZOMt2epGR0f2414PFYpnzd0P6INDValk/2RFlX34yU/gOlKaP4giEIbSmTRi+FkoBsBGgQZOuYjHq9XnRf8gY88QHL1Dd++iHKbrvGsnyOSKR40P25V6GdqCnDqHttJbZOmyyDVGokASkJ0CBI2Ta5RKccPwhZV06wVPSmCZej6cvPLM3phGTpg89GxugrpCgleiz0xcMQLNsohV6KJAHZCNAgyNYxyfRqfxstevYVS75a+D2a9ecMQphb83b8alGU6JHbvqycjq+1YQVfRLUBOlO6hgANgmtabU+hXS69DmknDbE8+drBR0Jt5bfysYBPOfYkZF01MZallq+JNDej+LxTEdlWZ3luJiQBpxOgQXB6h22sz5edh8I5Sy1X0LL+F2y87BzL8zopYcGsxfDndZOipOpFT6Nq3kwptFIkCchEgAZBpm5JpjX7xjuRfHh/y1VXzpuJmkVPW57XSQlTBwxG5uXXS1FScHMpSi4cKoVWiiQBmQjQIMjULYm0xhV0R7cZz9qieMO4c9G69mdbcjsmqaKgYPZS+LNzpSip7ObxaPz8Yym0UiQJyEKABkGWTkmm085v6tedeTwiDfWSERNPbqdho9D5nIvEE/Y3iho/+xhlt4yXQitFkoAsBGgQZOmURDr9efkomLXENsXrTj8GkeYm2/I7JbESH0DRvBel2Bchsq0e64YP4KmdTrn4WIcQBGgQhGiDs0R0Pn8sOp1xrm1FrT31CKihoG35nZS4y8VXI+2UM6QoqXzqJNS/9aoUWimSBGQgQIMgQ5ck0uhJTELRwlVQfPYdH/zroEOBSEQiauJKjetWtP1dEkURV+R/lDV//zVKr5XjkYjwMCmQBADQIPAyMJRA6klDkHnpdYbG7EiwSGMD1p1xbEeWcG4bBHLveAiJ+/cVnpN2rPf6s607DEx4IBRIAjoJ0CDoBMjlfyTQ7bEFiCvsYRsW7fRG7RRHDuMIJB16NHIm3GVcQBMjbbhsJFrX/2piBoYmAfcQoEFwT69NrzS+117Iv/8J0/PsLMG2D9/Flsk32qrBccl9PnRf9Do8AesO24qVIbdejpUc15HAXwnQIPCqMIxA5rgbkHriaYbFiyVQ7arlqHjk3liWcs1OCGRcOA7pQ4YLzyhUXobiUdZv7S08GAokgRgI0CDEAI1L/p5A0YKX4U3vbCue6sXzUDV3hq0anJg8/h+9kP/QHOFL4zsowreIAiUiQIMgUbNElpp4wMHInfSA7RKr5s9C9ULxf5HZDqqjArze7ac8dsnq6Epr56sqoid5Vldam5fZSMCBBGgQHNhUO0rKuvZWpBxt/xvklU89hprnn7EDgeNzpg89BxmjLhW+zoqZD6L2xcXC66RAEhCdAA2C6B2SRF/hUy/Al5Vju9qqeY+jetFc23U4UUBcUU90e3S+8KU1ff1vbLpRfCMjPEgKdD0BGgTXXwL6AWifNWqfN4owqhbOQfX8WSJIcZwGRXvMMP9leFPThK4tuu3yWccLrZHiSEAGAjQIMnRJcI0ZF1yG9NNHCqGyZtmzqJz9sBBanChCO7xJO8RJ5KGdw6Gdx8FBAiSgjwANgj5+XA2g6wNPIrDbnkKwqH9rFcqn3i6EFieKiCvaBd0eFfsdDzUUwtpTD3ciftZEApYSoEGwFLczkxU9txrelFQhimv84lOU3XSFEFqcKMKTkIjuS94Q/GwGFb8OOozncTjxAmRNlhKgQbAUt/OSifT+gUa3dcN6bLjkbOeBFqii3MnTkbjvgQIp+quUkktHIFi8VmiNFEcCohOgQRC9Q4Lr6zT8AnQeMUYYlWo4jLWnHCaMHicKSTzwEOTeNlXo0rY8cDu2vblKaI0URwKiE6BBEL1DguvLu38mEnrtLZRKHvdsbju8nTNQ9MxKc5PojK7thaHticFBAiQQOwEahNjZcSWAgiefhz+3q1As1p52BNRgUChNThKj+P3osfw9oUva9u7r2DLlFqE1UhwJiE6ABkH0Dgmur/vi1+FJShZK5drTj4ba3CyUJqeJyb1jGhL3P0jYspq//RKl118irD4KIwEZCNAgyNAlQTV6EpOgGQQoilAK1515HCIN24TS5DQxiQcdhtxb7xO2rGBpCUouOktYfRRGAjIQoEGQoUuCakzs0w+5tz8onLr15w5CuLJCOF1OEuRJTkH3Ra8JW1KoohzF550qrD4KIwEZCNAgyNAlQTWK9gXDb5g2330TGv71lqDUnCFLiYtDjxfeFbaYcH0d1g87QVh9FEYCMhCgQZChS4JqzJl4L5IOPkI4dbUvL0PFY+Le/hYOWCyCFCW6YZK2cZKIQ3vEpD1q4iABEoidAA1C7Oxcv7LbjAWIK+ghHAc+f7amJVnjJyLluJOsSdbBLOHqSqwfeXIHV3E6CZDA7wnQIPB6iJlA4Zxl8GXnxrzezIX81NFMuttjJ+x3EPLunGZ+ohgyBLdsQskFp8ewkktIgAR+I0CDwGshZgKF816ELyMz5vVmLlx/9gCE62rMTMHYioKeL30g3FcsWmOaf/kRpVeezx6RAAnoIECDoAOe25cWLXgF3vROQmIouXAogptLhdTmJFHai4raC4uijcZP/oWySdeJJot6SEAqAjQIUrVLLLFFC1+FNzVNLFH/UbPl/tuw7e3VQmpzkqjoi4qJScKVVLfqBWx9ZIpwuiiIBGQiQIMgU7cE06p9B699Dy/iaFjzPjbfcb2I0hylqXD+y/B16ixcTRWzpqN2+ULhdFEQCchEgAZBpm4JprX74tfgSRLTIERPdTztCCASEYyas+Rk/3Mykg87RriiNt10BZq++FQ4XRREAjIRoEGQqVuCaRX5DoKGSttJT9tRj8M8AulDRiDjwsvNSxBj5PXDByJcWx3jai4jARLQCNAg8DqImUDRc6/CmyLmOwhaURuvGYOWH76JuT4ubJtAoPd+6HqvYMcqRyKIHvnNQQIkoIsADYIufO5eXPTsKnjT0oWFUL14HqrmzhBWnxOEKYEAeix9W6hS1NZWrB18pFCaKIYEZCRAgyBj1wTRXDR/JbydMgRR81cZocqt2w/sUVVhNTpBWI8V70Px+YQpJdLYgHVnHCuMHgohAVkJ0CDI2jkBdBc+vRy+zGwBlOxYQvGowQiVbxZao+ziuj//FjwJCcKUofVb6zsHCZCAPgI0CPr4uXp1wZNL4M/NF5pB2W3XoPHTD4XWKLu4oudWw5uSKkwZda+uwNaH7xFGD4WQgKwEaBBk7ZwAurve/wQCvfYSQMmOJdS9vhJbH5ostEbZxRUteBnedHH2Qth046Vo+vrfsmOlfhKwnQANgu0tkFdAl7HXIu1ksQ/EUVuasW7YCdBeXOMwh4BIZ3KooRDWnnq4OYUyKgm4jAANgssabmS5qccPQuaVE4wMaUqs0usuRvN3X5kSm0GBwqdegC8rRwgU4ZpqrB8xUAgtFEECshOgQZC9gzbqjyvsgW6PLbBRQftSVz87G1ULnmzfZM7qMIGC2Uvhz8nr8DozFjT/+C1Krx5tRmjGJAHXEaBBcF3LjS24x/J3ofjFO83v91VquykWn38aP3c0tvX/jVbw5PPw53Y1KXrHwpY/NBn1r6/s2CLOJgES+FsCNAi8MHQREOn5884K2XjNaLT88K2uWrn47wkUzFoCf579X7OoweD28zc4/ksgpf8AwOMxjIjGeNs7rxkWj4HEJkCDIHZ/hFeX/8gziO++i/A6q5fMQ9XT3FXRjEaJ8rlr64ZibLhkmBklShuzx/L3oPj9humPNGzDujOPMyweA4lNgAZB7P4Iry7zin8i9YRThNcZrq7E+pEnC69TRoEFs5+HP8f+RwzcWvuvVw8Ngoz/ixJHMw2COL2QUkniAYcgd9JUKbRz0yRz2lQwZyn82fa+pKiGQ1h/9kBEGurNKVLSqDQIkjZOENk0CII0QlYZ2guK3Ze8LvyLihrfbe++ji1TbpEVtbC6C59+Ab5Mez9zbPn5e2wcf4GwjOwSRoNgF3ln5KVBcEYfba2i26PzEVfU01YN7UmubZq0/txTEdlW157pnNNOAiK8qLr1kXtRt2p5OxW7ZxoNgnt6bUalNAhmUHVZzKyrbkbKsXJsTlM1fxaqF85xWYfMLdfuY7/DtdUoPvdUqKGguYVKGJ0GQcKmCSSZBkGgZsgqJWG/g5B35zQp5Ac3FqPkYr7pbmSzui9+HZ6kZCNDdihW7cqlqJhxf4fWuGUyDYJbOm1OnTQI5nB1XdSihavgTU2Xou6y269D48f/kkKrDCLt3CxLO2Oj5KKzENrKI73/7lqhQZDhf0HiaqRBELc3UinLmXgvkg6WY5Oa5h++Rek13I7XiAtMCSSgx9K3jAgVU4z6N15B+YN3xLTWDYtoENzQZfNqpEEwj62rIicfeTyyr58kR81qBCVjzkSwrFQOvQKrTOjTD3m3P2iLQu3Txg2XnYPghvW25JchKQ2CDF0SVyMNgri9kUuZoqDouVfhTU6VQnfzd1+i9LpLpNAqssiM0VcgffDZtkise+UFbH10ii25ZUlKgyBLp8TUSYMgZl+kVCXLropRuJEI1p09gJ886rzSCmc/D58duyiGw1g/ajDClVt1VuDs5TQIzu6v2dXRIJhN2EXxA3vsja73zZSm4uYfv0Pp1RdKo1dEod2XvAFPYpLl0iqefBi1LzxreV7ZEtIgyNYxsfTSIIjVD+nV5D84B/G79pKiDlX7W+jIkxGpq5FCr4gie7z4PhSvz1Jp4Zrq6PHdarDV0rwyJqNBkLFr4mimQRCnF45QktL/JGRdPVGaWlo3lmDDxWdJo1ckofG77oH8B2dbLqn0hrFo/uYLy/PKmJAGQcauiaOZBkGcXjhCiRIfQOHTy+FNTZOjHlXFhktHoLVknRx6BVKZe9fDSNznAEsV1b68bPumSKpqaV5Zk9EgyNo5MXTTIIjRB0epSBt0JrpccpU0NXr1IXsAACAASURBVEW21WP9iIFQQyFpNNstVPH50GPF+5bK0PpUPGowIo0NluaVORkNgszds187DYL9PXCcAk9KavQugieQIE1tW2dMRd3K56XRa7dQX5csFM5dYamMjVecj5Zff7Q0p+zJaBBk76C9+mkQ7OXv2Oxppw1DlzFXylOfqkbvIoRr+cJie5qWeeUEpB4/qD1TDZlTNW8mqhc9bUgsNwWhQXBTt42vlQbBeKaMCEQP7ymcswye5BRpeDT++xOU3Xo1EA5Lo9kOoZ6ERGifN0JRLEnf9N1X2HTD2OjeFRwdI0CD0DFenP1HAjQIvCJMI5B85HHIvv520+KbEXjzHTegYc17ZoR2TEwrT+8MV1Vi/TknO4ad1YXQIFhN3Fn5aBCc1U+hqlH8cSiYtRi+zGyhdO1MjHY6YPGFpyNcVSGNZiuFai8nFsxeCu0dBLNHpKkRJaOHQtv3gCM2AjQIsXHjqu0EaBB4JZhKwN+1AAVPLDI1h9HBm778DGU3j4d2GBDHHwkE9tgHXe973HQsajCITRMuR/N3X5mey8kJaBCc3F3za6NBMJ+x6zPk3DIFSX0Pl4pDxayHULtcLmNjOmCvFwUzF8Gf29XcVJEItj42BXWrrP1Kwtyi7IlOg2APd6dkpUFwSicFrkOJi0OPpW8DHo/AKv8qrfT6sWj+ljv2/UYm6dCjkDPhbnN7qKqoWvAkqhfOMTePS6LTILik0SaVSYNgEliG/SMBf34hCh5faNmb70bw1zbkKb5gCCL1dUaEkzqGJzkVRfNXQvH7Ta2jZtkCVM5+xNQcbgpOg+CmbhtfKw2C8UwZcQcEsm++B8n9jpSKT8u6X7Bx3HmA6u5P7LKuvQ0pR59gau9qlj2LyjmPcBtlAynTIBgI04WhaBBc2HS7Sla0Z9hzV8DXKcMuCTHlbfzkA5RNujamtU5YlHLMAGRdc4uppVQvnoeqZ2ZyrwODKdMgGAzUZeFoEFzWcLvL9eXkodujC+AJBOyW0qH89W+8jPIH7+zQGidMjt9lN+TdMwOeBPO2za56dvb2dw64EZLhlwwNguFIXRWQBsFV7Raj2OQjtA2UJkn1PoJ2emDtKy+g4rH7xIBogQpvp4zocc5m7mNRMWs6alcscv0jHLPaSYNgFll3xKVBcEefhasy48JxSB8yXDhdOxUUNQnLUPHY/XLpjkGttlV21/tmIq6wRwyr27ek/IHbUf/mqvZN5qyYCNAgxISNi/5DgAaBl4JtBHIm3oOkg+V6aRFQUbtqBSoeudc2bmYn9qamI++uhxHXfRdTUmkbUG2edB0aP1tjSnwG/R8BGgReDXoI0CDooce1ughon8zl3fUIAnvsrSuOHYu18xq23DMR2o5/Thr+3HzkTp4Gf3aeKWVFGrah9PpL0Lr+V1PiM+gfCdAg8IrQQ4AGQQ89rtVNIHore8rjiCvqqTuW1QFaS9Zh08QrEa7canVqU/IF9twHubc/CE/AnBcSg6Ul2Dj+Amj7S3BYQ4AGwRrOTs1Cg+DUzkpUl3ZLu+vUJ+DP6yaR6u1S1VAQm266As3ffKn9f9Lp1wRrn5+mnDwUmWOuNO3F0aZvvth+ZDOHpQRoECzF7bhkNAiOa6mcBXlSUpE/7SnTbm2bTaVqwWzUPP8M1NYWs1MZGt+XlYO8ex6DPzvX0Lj/DRaJoO6tVdjqwk9EzQHasag0CB3jxdl/JECDwCtCGAKehETkPzIP/hyTDwMyqeJwdRVKb7wU2q107bNIkYd2Pkb66SPQeeRFpslUQyFsfXQK6l97ybQcDLxzAjQIvEL0EKBB0EOPaw0noPj8yJ8+F3GF3Q2PbVXA+rdXQ/uET8iNfxQFCfscEH3XQHu0YNaItDRH3zcIlqwzKwXjtoMADUI7IHHKDgnQIPDiEI+Ax4vs625D8hHHiqetnYrUYCtqli5A1TNPtHOF+dMS9j0Q2dffDm9amvbmgWkJtZc3S68Zw5cRTSPc/sA0CO1nxZl/JUCDwKtCTAKKgugZAFdNNO3FOSsK197Y1+4oVMy4357HDoqC9KHnIP20s+BN62Q6S20jqconpkEzSBz2E6BBsL8HMiugQZC5ey7QHr/Lrsi793HTPr2zCqH28mLL2p+hnTvQ9PnHppuFhD790OmMcxH/j90tYxfdGfHt1WI+WrGq0YLloUEQrCGSyaFBkKxhbpSrnQmQfeMdSOi9nyPKD9dWQztGuvGj97DtX28hXFOluy7tvITkw45GYt/DEVfQffvdAguHdtqlduolh1gEaBDE6odsamgQZOuYW/UqClIHDUWXUZdDewPfMUNVEdq6BcGyjQhu3oTW4rUIbSlDqLIc4fo6RJoagVAI8Prg8fvhSe8MX0Ym/F27Ia5bEfx5+dH9I7R/ZtdwmznoNHI0EvbY1y7cHcqbsPf+hj5WUsNhNH/zRYc02DU50tyIzbdfb1d6R+SlQXBEG91ThHZ4UJex1yBhr/3dU7TAlW6+4wZo2067aWTfdDeSDznKTSVLWWtkWz3WnXW8lNpFEU2DIEonqKP9BLS7CSeeis4jRkN7/MBhA4FIBFum3o5t76y2Ibm9KWkQ7OXf3uw0CO0lteN5NAj6GTKCTQS03RczzrsEKccNguLz2aTChWkjEVQ8OQ21Kxa7sHiABkGOttMg6O8TDYJ+hoxgMwHtBb3McTciYb+DoHg8NqtxeHpVRc2LS1D5xIMOL3TH5dEgyNF6GgT9faJB0M+QEQQhoBmF7OvvQPyuvXhHwaSeNH72McpuGW9SdDnC0iDI0ScaBP19okHQz5ARBCPgSUiKfhYZ6L2vZXsACIbAFDnBslKUjDnD9D0cTBFvYFAaBANhmhiKBkE/XBoE/QwZQWACaScPRaeRY+BNSgb4+CHmTmmft224bASCG4pjjuGUhTQIcnSSBkF/n2gQ9DNkBAkIaBsHdbloPJKP4mdPsbSr5oWFqHxyeixLHbeGBkGOltIg6O8TDYJ+howgEQHFHwdvp87R8wlSBw6Goph3aJFEWHYqVdvAqeSiM4Fw2Ckl6aqDBkEXPssW0yDoR02DoJ8hI0hKQPH6omYhfpfdkXLsSUg86FBTj0CWFBPKp96O+rdWySrfcN00CIYjNSUgDYJ+rDQI+hkygkMIbL+7kBHdtlh7wTFh3wMQ2G1PeBISHVJhx8sIlpZgw9jh0N5B4NhOgAZBjiuBBkF/n2gQ9DNkBCcTUBR4U1Kjhx950tLhTUmDLycP2ieVvi5Z8KamRf8ogUR4AgHA691OIxKBGgxCO8VRO08hXFeHSH0twnU1CFVuRVj7U1cL7ThotbEBkdZW5D8wC56kFKFoVsyahtrlzwmlyW4xNAh2d6B9+WkQ2sdpZ7NoEPQzZAQS0E0g6ZAjkXPTPbrjGB2g+LxTEaooNzqs1PFoEORoHw2C/j7RIOhnyAgkoJtA7h0PIXH/vrrjGBmg+cdvUXr1aCNDOiIWDYIcbaRB0N8nGgT9DBmBBHQR8OcXouDxhYYey6tL0H8WVy14EtXPzjYilKNi0CDI0U4aBP19okHQz5ARSEAXgYzRVyB98Nm6YpixePMd16NhzftmhJY6Jg2CHO2jQdDfJxoE/QwZgQRiJ+DxoPCpF6IvPIo2Nl51IVp++k40WbbroUGwvQXtEkCD0C5MO51Eg6CfISOQQMwEtBMo8+6cFvN6MxeWXHQWtM8cOf5IgAZBjiuCBkF/n2gQ9DNkBBKImUDWNbcg5ZgBMa83c2Hx+YMR2rrZzBRSxqZBkKNtNAj6+0SDoJ8hI5BAzAS6zXwOcfmFMa83c2HJhUMR3FxqZgopY9MgyNE2GgT9faJB0M+QEUggJgLaBktFC1+Naa0VizZcOgKtxWutSCVVjvQhwxG/2x5SaE4+5GhDTzFVQyE0rHlXitrV5iaUPzhZCq2iiqRBELUz1OV4Ain9ByLr6puFrXPTTVeg6YtPhdVHYW0T6LH8PSh+f9sT2zkj0rAN6848rp2zOU12AjQIsneQ+qUlkHnlP5F6/CnC6t/68L2oe3W5sPoorG0CNAhtM+KMHROgQeDVQQI2Eci762Ek7HOATdnbTrvt/Tex5Z6JbU/kDGEJ0CAI2xophNEgSNEminQigfzpcxHfc1dhS1NbWrB++ABEmpuE1UhhOydAg8ArRA8BGgQ99LiWBHQQKJi1GP68bjoimL9Uu4Og3UngkJMADYKcfRNFNQ2CKJ2gDtcRKHx6efTYaJFH0zdfYNMNY0WWSG07IUCDwMtDDwEaBD30uJYEdBAonPcifBmZOiJYs3TTzVeh6fM11iRjFkMJ0CAYitN1wWgQXNdyFiwKgcK5K4Q8g+HPfFrX/YKN40dB+waeQy4CNAhy9Us0tTQIonWEelxDoGD2Uvhz8qSot2bpAlTOeUQKrRT5PwI0CLwa9BCgQdBDj2tJQAeBbjOeRVxBdx0RLFyqRrBpwjg0ffW5hUmZSi8BGgS9BN29ngbB3f1n9TYS6Dp1FgK797ZRQcdSRxobUDLmTIRrqjq2kLNtI0CDYBt6RySmQXBEG1mEjARyb70fiQcdKpX0cF0tis8dBDUYlEq3W8XSILi188bUTYNgDEdGIYEOE+g08iJ0PntUh9fZvSBcX4f1IwYC4bDdUpi/DQI0CLxE9BCgQdBDj2tJQAeBxAMPQe5tU3VEsG+pdmhP8ajB0H5yiEuABkHc3sigjAZBhi5RoyMJKP44dF/6JhSvT8r61NZWlN4wFi0/fSelfjeIpkFwQ5fNq5EGwTy2jEwCbRLo9uh8xBX1bHOeqBPUSASVs6ah9sXFokp0tS4aBFe3X3fxNAi6ETIACcROIPPy65E6YHDsAQRZWf/2q9g6/R6orS2CKKIMjQANAq8DPQRoEPTQ41oS0EkgYZ8+yLvLGRsQtfz8AzbfPQGhLWU6qXC5UQRoEIwi6c44NAju7DurFoWAoqBwzjL4snJEUaRLR7i+FuVT70Djpx/oisPFxhCgQTCGo1uj0CC4tfOsWxgCGReOQ/qQ4cLo0S1EVVG14ElUL5oLRPgppG6eOgLQIOiAx6WgQeBFQAI2E/DldkXBzEVQvF6blRibvvHzNSi/bxLCdTXGBma0dhOgQWg3Kk78GwI0CLwsSEAAAtk33onkw/sLoMRYCaHKCmy6aRyCG9YbG5jR2kWABqFdmDhpBwRoEHhpkIAABOL/0Qv5D84GFEUANcZKUMNhbLnvVjS8/6axgRmtTQI0CG0i4oSdEKBB4OVBAoIQyJ5wF5IPPVoQNcbLqH/vTWy9/1ZohoHDGgI0CNZwdmoWGgSndpZ1SUfA37UABU8skk53RwRHWpqxftiJ3C+hI9B0zKVB0AGPS/mSIq8BEhCJQPqwUcg45yKRJBmuRQ22ovS6i6Htm8BhLgEaBHP5Oj067yA4vcOsTyoCSiABRfNXwpOQKJXuDouNRFC16GlUz5/V4aVc0H4CNAjtZ8WZfyVAg8CrggQEIxDYY290vW+mYKrMkdP0zb+xedJ1iDQ2mJPA5VFpEFx+AegsnwZBJ0AuJwHDCSgKuoy9FmknDTE8tIgBg2WlKJt0LT+FNKE5NAgmQHVRSBoEFzWbpcpDQIkPoPDp5fCmpskjWodSbYvmLVNuQ9Pna3RE4dI/E6BB4DWhhwANgh56XEsCJhLQdlgsfPJ5EzOIFVoNBlExaxrqXl4qljCJ1dAgSNw8AaTTIAjQBEoggR0RSDnhFGSNu9GRGyj9bc2qiprlz6Hyyem8KAwgQINgAEQXh6BBcHHzWbocBHJvfxCJffrJIdYglQ1r3seWeyZC+ySSI3YCNAixs+NKcB8EXgQkIAOB6JHQ2bkySDVMY+vGYpReexEi9XWGxXRbIBoEt3Xc2Hp5B8FYnoxGAqYQ8HbqjIJZS5y/P8Kf6EUaG7Fh7NkIVZSbwtXpQWkQnN5hc+ujQTCXL6OTQIcJRI999vq2H//s2/5T8fqQfPQJyBh1WYfjOWFByUXDECwtdkIpltZAg2Apbsclo0FwXEtZkHAEFAWKxwt4PNE/ivYnLh7+/AL4c/Phz8v/709fTld4k1OEK0EEQRuvvRgt338lghRpNNAgSNMqIYXSIAjZFoqSlYD2iz9+114I9Nor+id+l93hTe8MRTvGOXqS8+9+ylqkjbq33H0Ttv3rLRsVyJWaBkGufommlgZBtI5Qj9gEPB4Edt0Dgd77IWHvPojvsQsUfxwUnx/wa48DfGLrl12dqqJi9sOofWGh7JVYop8GwRLMjk1Cg+DY1rIwPQQ8gQQE9t4fifsdhEDvfeFNTY++IKgdphR9N4DDPgKqiuql81H11GP2aZAkMw2CJI0SVCYNgqCNoSzrCHg7ZyDxgEOQ2OdgxHUrhDctPWoIou8McAhLoHblUlTMuF9YfSIIo0EQoQvyaqBBkLd3VB4DAcXvjz4aSDzwEMT/oxf82bnwdsqIIRKXiECgbvWL2Dr9bhGkCKmBBkHItkgjigZBmlZRaCwEtEOPEvY7cPujgl33QFz37e8McDiHQN2rK7D14XucU5CBlXQ+9xLAa9ydMLW1FdULnjRQIUOJTIAGQeTuUFtMBLQvBxIPOBgJ+/RBYPfe0U8KOZxNoPbFJaiY+YCzi2R1JGAxARoEi4EznfEEoncJeu+DxIMOR/Lh/aPvEHC4j0D1knmoenqG+wpnxSRgEgEaBJPAMqy5BDyJSQjsvieSjzoRyUf052MDc3HLEV37BHLWNNSuWCSHXqokAcEJ0CAI3iDK+x8Bba+BuKKeSDnu5OgfTzwfHfD6+BOBSARld1yPxk8+IBoSIAGdBGgQdALkcvMJaF8ZJB12NDqPGANvSqr5CQXJoIZCUENBqMHtfxAOQQ2HgHAYajgMRCKAqkJV1aji6G6N2qeZ2tbO0TMcfNH3L5RAANq+Dto/d8PQ2GwYOxzB0hI3lMsaScA0AjQIpqFlYF0EPF74Mrogc9yNSOzTT1cooRZrv9Cjv/Bb//vLXzupsLX4VwQ3FEM74ji4aSNCW7dAbW0xTHrCPgcgZ8Ld8CQnGxZT9EDrzz4R4bpa0WVSHwkIS4AGQdjWuFOYtkthYN8DkXPT3fDEB+SFENH+lh+JmoCWn79H8zdfoOnrf6Pp2y+jdwLsGNojmtzJ05DQez870lueM9LUiPXDB0D7NI+DBEig4wRoEDrOjCtMIaAgbcjZyDhvbPT2uGxDMwKN/7cGjR+/j4ZPPkBkWz1UNfLfxwDC1KMoSDlmALKuvlkYSWYK0XpSdutVZqZgbBJwLAEaBMe2Vp7COp83FmmDhkbPOpBiRCLYtuZ9bHvjZTT//B3UpiZEWpq3mwFJhi8rF/lTn4C3cxdJFMcuc8vUSdj21quxB+BKEnApARoElzZehLI7nXU+0k4bBm9qmghydqgh0tiA+rdXY9s7qxHaUoZQTVX0RUHZhxIXh04jxqDT0JGyl7JT/dqLnRsvPxetJescXSeLIwGjCdAgGE2U8dokkHL8IHQefiF8mdltzrVjgvZVQOOnH6D+tZVoWfczQuVbgIj8huBvWSpK9OjqvLsehuLgw6mCpRuw4fJzDH3x045rkzlJwEoCNAhW0nZ5rvhd90DmpddGD0kSbWimoOHd16J3Clp++s51b7970zsh+5+THf0CY/Xiuaia+7holx71kICwBGgQhG2Nc4QpgQRkjr0m+nKcaEcoa18Y1L7yAho+eheR+jrnQI+xkvTTR6DzuRdD++LBaUONRFB6zZioAeQgARJomwANQtuMOCNWAh4PUvoPRJfRV8CTnBJrFMPXqS3NqH/nNdStXoGWH/nL4s+AA733Rfa1twn7CEjPBaEZwo1Xj5bqhVI99XItCeghQIOghx7X7pCALzsXmZdeFz1VUZShbUhUt/pF1L64OPoZIseOCXiSkpF11c1IOvgIx2Ha+tj9qHt5qePqYkEkYDQBGgSjibo9nnbX4KjjkTnun9DekhdhBDdvipoC7ZeCtn0xR/sJRB85jBgN7cRMp4xwdSVKxpwJbSMlDhIggR0ToEHg1WEYAU9KGjIvuy565LIIQ/tFUP38/Kg5kGmPAhHY/V5D/C67IXvivfAL+tVJLLxqlj2LytkPx7KUa0jANQRoEFzTanMLjSvsgbzJ06EdrGT30M4wqHv1RVTOns47BgY1QzvsKee2+5Gw1/4GRbQ3jLa3xfpzBkFtbrJXCLOTgMAEaBAEbo4U0hQFqccNQuYVN9p/WqCqoqV4LUqvuoD775t08XQaNir6yEG0r1FiKbf2lWWoePS+WJZyDQm4ggANgivabFKRihL9dj750KNNStD+sNoJiZtuHo/mrz9v/yLOjImAv6A7Ch6dL71J0F5UXTfshOiR2RwkQAJ/JUCDwKsiZgLdHlsA7dGC3aPllx9Qet3FvGtgYSM8iUkonPeiPOdn7IBN1fxZqF44x0JyTEUC8hCgQZCnV+IoVRQUPr0cvi5Z9mpSVVTMfBC12idrEh2UZC8047IrXh+ybrhdiDtIsValna1RfMGQWJdzHQk4mgANgqPba3xx2vfxBbOWwJuWbnzwDkQM19ehbOKV0O4ecNhLIOWEU5B1+Q1yPnJQ1ejGSdxd0d5riNnFJECDIGZfhFTlzchEt0eesf30xda1P6Ps9usQ2rpFSE5uFJWwdx/k3HwvtEcPso3m776KPqLiIAES+CMBGgReEe0i4MvKRf5Ds+FN69Su+WZNavy/j7Dlvlu5E6JZgHXE9XcrQt7tD8KXlaMjivVLtU8e151xrPWJmZEEBCdAgyB4g0SQpx3L3PWBJ+Hr3MVWOds+eBvlU2+HdpYCh5gEtH0wcibeg8DuvcUUuANVmyaMQ9OX/yeVZoolAbMJ0CCYTVjy+N70zsibMgNxXQtsrWTbR++ifMot/FLB1i60L7knIQFZ101CUt/D27dAgFnNP3wTPemRgwRI4H8EaBB4NeyQgHZMc64Au+c1ffMFym4eD22HRA5JCHi9yBr3T6Qcd5IUgiPNTVh3+jFSaKVIErCKAA2CVaRly+PxIGv8RKT0H2Crcu1FxA2XnA3tP+AckhFQFGRcOA7pg88WX7iqYu3QY6A28/GV+M2iQqsI0CBYRVqyPOlnnIuM88faqlrbHXH9iAGINDTYqoPJ9RHoNHw0Oo+4UF8QC1ZXznkENUsXWJCJKUhADgI0CHL0yVKVgT33Qdd7Z9h7tkIkgg1Xng/tk0YO+QmkDx2JjFGXCV1IaOtmFJ8/WGiNFEcCVhKgQbCStgS5lPh4FD613PaNkOreeBlbH7xTAmKU2F4CnYadj87niL3fwNpTj4AaCra3JM4jAUcToEFwdHs7Xlze3Y8iYW97j/QNVVag+NxBHRfPFcITyBhzJdJPGyasTm0/BG1fBA4SIAGABoFXwX8JpJ48FJmXXG37o4WSi85EsKyUnXEogewJdwl7fsP6UYMRLt/sUPIsiwQ6RoAGoWO8HDtb8ceh6NlXbN8qt+Gjd7H5zhsdy5mFIWpAtY23ArvuIRyOrY/eh7pXlgmni4JIwA4CNAh2UBcwZ96Ux5Gw5z62Kos0bEPx+afxFq+tXbAmuWZItePC/Xn51iRsZ5Zt776OLVNuaedsTiMBZxOgQXB2f9tVXaD3fuh69yO2n8ZX8+JiVM58sF2aOUl+Atpx4fmPzIM3JU2YYkIV5Sg+71Rh9FAICdhJgAbBTvqC5C5a8DK0LZXtHNG7B6MGQ/vJ4R4CSX0PQ87Ee203p78n/usphwHhsHuawEpJYAcEaBBcfmmkHHcyssbfZDuFutdewtZpd9mugwKsJ9Bl7DVIO3mo9Yl3kHHt6UdzR0VhukEhdhKgQbCTvs25tefA3V94G4risVeJqmLDpSPQWrLOXh3MbgsBxe9H/sPzENetyJb8f0667qwTENlWJ4QWiiABOwnQINhJ3+bcqQMHI/Oy621WATR/9xVKrxN7Ax3bITlcQGCv/ZB318NQPF7bK10/fCDCtdW266AAErCbAA2C3R2wKb92UmP359+Eoig2Kfhf2sonp6PmhYW266AAewlkXn4DUgecZq8IILpJl7ZZFwcJuJ0ADYJLr4DEvocj95Yp9lcfiURfTtTeHudwNwFvp84ofHIplEDAVhDap7baKaIcJOB2AjQILrwCFK8XRc+9Ck9isu3Vt/z6IzZecb7tOihADAJpg4ejy+hxtoqJGlbupmhrD5hcDAI0CGL0wVIV8T13Rf70uZbm3FGy6kVPo2reTCG0UIT9BDyJSSha+CoUn882McUXDEFoS5lt+ZmYBEQhQIMgSics1JF942QkH36MhRl3nKrstmvR+OkHQmihCDEIpJ8+AhkXXG6bmOJRQxAqp0GwrQFMLAwBGgRhWmGNEG1DpKL5K+09kOl3pWq71vH9A2t6L0sWX1YOCp96wTa5fMRgG3omFowADYJgDTFbjjAvJwIIVVWi+JyTzS6Z8SUkkHv7A0jsc7AtymlabcHOpAISoEEQsClmSsqd9AASD7DnP7x/rqvx/z5E2a3XmFkuY0tKILDnvug6ZYYt6tePPBnh6kpbcjMpCYhEgAZBpG6YrMWbmoaiBa8Is+99zbJnUTn7YZOrZngZCXhSUtH9udW2SF8/7ESE62ttyc2kJCASARoEkbphspbEPv2Qe7s4pyVufew+1L28zOSqGV5WAl3vfwKBXntZLn/d0P6INDVanpcJSUA0AjQIonXERD0Zoy5D+tCRJmboWOjNd9+Ehn+91bFFnO0aAslHHo/s6ydZXu/aUw+HGgpZnpcJSUA0AjQIonXERD3dZjyLuILuJmboWOiym8ej8fOPO7aIs11DwI6vGcL1dVg/7ATXMGahJLAzAjQILrk+vGmdUPTsK0JVW3r9WDR/+4VQmihGHAKepCR0X/yGpYIa1ryPzXfYf4CZpUUzGQnsgAANgksujYR9D0Te5OlCVbvx6tFo+fFboTRRjEAEPB70WP4etK3BrRoVsx5C7fJFVqVjHhIQXRbtiAAAGABJREFUmgANgtDtMU5c2qlnoctF440LaECkjVddgJafvjcgEkM4lUDX+2ch0Ku3ZeWVXDwMwY3FluVjIhIQmQANgsjdMVBb5pUTkHr8IAMj6g/FOwj6GTo9gmZqNXNr1Vh3xrGINDZYlY55SEBoAjQIQrfHOHF5Ux5Hwp77GBfQgEh8B8EAiA4PkdJ/ILKuvtmyKteedgTUYNCyfExEAiIToEEQuTsGatPOX/B2yjAwov5Q/IpBP0OnRwjsvT+63v2oJWWGt9Vj/VnHW5KLSUhABgI0CDJ0Sa9Gnw89l78nzAFNv5XDfRD0Ntb56/153VAwa7ElhVY/9xSqnnnCklxMQgIyEKBBkKFLOjX6MrNR+PRynVGMX751xlTUrXze+MCM6BgC3owuKJr3kgX1qFh31gmIbKu3IBdTkIAcBGgQ5OiTLpXxPXdF/vS5umKYsbhm+SJUznrIjNCM6RAC0fNDFr5qejVqSwvWDjnK9DxMQAIyEaBBkKlbMWoN9N4XXe+152S8nUlu/PcnKJt4ZYxVcZkbCHgzMlE070XTSw1u2oiSMWeYnocJSEAmAjQIMnUrRq0J+/dF3h3i/U2d29rG2FAXLfPnF6Jg5nOmV1z+8D2of3WF6XmYgARkIkCDIFO3YtSaeMDByJ30QIyrzV1WPGowQuWbzU3C6NISSNhrP+Td85ip+tVgK9YOOQaIhE3Nw+AkIBsBGgTZOhaDXlHvIGilbL7zBjR89F4MVXGJGwikHD8IWVdOMLXUYNlGlIzm4wVTITO4lARoEKRsW8dEB3rvh673mvu3sI4p+t/s6qXzUTXHmu/cY9XIdfYRyLhwHNKHDDdVQMUTD6J2hTWfUppaCIOTgMEEaBAMBipiuPieuyF/+tMiSkPLul+w8fJzhNRGUfYT6Hr/Ewj02ss0IZHmJqwbeiygRkzLwcAkICsBGgRZO9cB3b6sHBQ+9UIHVlg7tXjUEITKy6xNymziE1AU9FjxvqmnOTZ98wU23TBWfBZUSAI2EKBBsAG61SkVvz96bK6oo3LOI6hZukBUedRlEwFPYhK6L3nDvOyqitLrL0Hzd1+Zl4ORSUBiAjQIEjevI9KLnn0F3rROHVli2dzmH75B6TVjLMvHRHIQ8HXJQuFc8z49bN1YjA0XD5MDBlWSgA0EaBBsgG5Hyq73z0KgV287UredU1VRcsnZCG4sbnsuZ7iGQMK+ByBv8sOm1VvxxEOoXbHItPgMTAKyE6BBkL2D7dSfOX4CUo8b1M7Z1k+re20ltk6bbH1iZhSWQPaNk5F8+DGm6AtVVaD4/NOAMPc+MAUwgzqCAA2CI9rYdhFppw1DlzHibmscadiG9cMHQg0F2y6GMxxPQImLQ/clb0Lx+UyptWrhHFTPn2VKbAYlAacQoEFwSifbqCNh3wORN3m60NVWL56HqrninRkhNDSHiovrVoRujy80pbpwbQ2KLxgCtbnJlPgMSgJOIUCD4JROtlGHJyUV3Z/TTsVThK04XFOF9eeewtu+wnbIOmHpQ89BxqhLTUlY+fRjqFnyjCmxGZQEnESABsFJ3WyjFu3IZ+3oZ5FHzfLnUDlrmsgSqc1kAoo/DkXPvATN1Bo9glvKsGHscKgtzUaHZjwScBwBGgTHtXTHBXUaMRqdh18odMWRxobo7d9IfZ3QOinOPAKBPfZG1/tmmpKg/P5JqH9bu5PGQQIk0BYBGoS2CDno34t8JsPvMTd9/W9sutGc28sOaqdjS8mZeA+SDj7S8Pqi+21cexGgqobHZkAScCIBGgQndnUHNSnxAXRf+CqU+Hixq1ZVbJp4JZq++FRsnVRnOAF/fiEKZj5neFztrIWN4y9Ayy8/Gh+bEUnAoQRoEBza2B2VlXnZ9UgdOFj4qtWWFqwbdjzU1lbhtVKgcQTMuj6rn5+Pqqd4aqhxnWIkNxCgQXBDl39XY2D3vdB16hNSVB096XHceTxpT4pu6Rfp71aEAhM+bQzX16Fk1GBEmhr1i2QEEnARARoEFzVbK1XxelG06DV4EhKlqLzi8QdQ+9ISKbRSpD4COTffi6R+R+gL8jerN4w7D61rfzI8LgOSgNMJ0CA4vcN/U5/2iEG7lSvL2HDFeWj9lf+Bl6VfsehMPOhQ5N56fyxLd7qm+vlnUPXUY4bHZUAScAMBGgQ3dPlPNXo7ZaBo/kppKlfDIZRcdBZCmzdJo5lCO0DA40HhUy9AO73RyKE9WigeeTK37zYSKmO5igANgqva/b9iu4y9Fmknny5N9ZFt9dhw2UiEKsql0Uyh7SOQefXNSO0/sH2TOzBr/YiBCNdUd2AFp5IACfyeAA2CS68H2e4iaG0Kbd2CjVePRriqwqVdc17ZKf0HImv8BMDjNa447TPZm8ah6cvPjIvJSCTgQgI0CC5s+m8lZ42fiJTjTpKKQHDTRmyacHnULHDITcCXlYNujzwDT1KyoYXwvQNDcTKYiwnQILi4+dqXDN2ff1M6AsEtm7D5tmvRWrJOOu0UvJ2AtmlXwYxn4cvONRRJ05f/h00Txhkak8FIwK0EaBDc2vn/1J1+xrnIOH+sdBS0kx8333Mzmr/+XDrtrhfs8SB/+tOI7/4PQ1FohnHDuHOBUMjQuAxGAm4lQIPg1s7/ru6iBS/Dm95ZOhJqawu2zpiK+tdekk67awUrSvQgpkCvvQxFECrfjI3jRyFcW2NoXAYjATcToEFwc/f/U3v8rnug6/1PRDdRkm6oKmpfXIzKpx6FGgxKJ99NgpW4OOTe/hAS9trP0LLDtdXYdMOlaN2w3tC4DEYCbidAg+D2K+A/9WffeCeSD+8vLY3gpg3YdNMV0P4mySEeAe1FRM2ExhV0N1RcpGFb9GCvlp++MzQug5EACQA0CLwK/kugYM4y+A1+acxSvJFw9L2Ehg/f5fkNloLfeTJfTh7yH5oDb0qaoaoiTU0ou+UqNH/3paFxGYwESGA7ARoEXgn/JeDPL0C3R+ZD8fulptLy8/cou+1aaC8ycthIQFEQ2GNv5N07A4qiGCpEO+1z081XovlbmgNDwTIYCfyOAA0CL4c/EEgffDYyRmufiRn7H3Q7MFfMmobaF5cAkbAd6d2d0+NBxqhLkT5khOEc1FAIG688H63rfzU8NgOSAAn8jwANAq+GvxDIum4SUo463hFkIk0NKLvlajR/95Uj6pGhCF9mdvR9A6PPVtBqj57LMeZMhLaUyYCCGklAagI0CFK3zxzxiteHvLsfQWDPfcxJYHVUVUWwtARld96IIN90N5V+xgWXI+3UM6H4jH9Mpb2QWHLxWQhX89GRqU1kcBL4DwEaBF4Kf0vAk5iErg/ORlx+oWMIqeEwWovXYuvD9/Ctd4O7mnTo0ci85Bp4O2cYHHl7OK1vpdeMQaSp0ZT4DEoCJPBXAjQIvCp2SMCXkYmuD8yCr0u2syhFImhZ/wtqlz+H+jdXOas2i6tJ2PdAZFw4DvHddwEMfhHxt1JqVz6PylnToL17wEECJGAdARoE61hLmcmf0xV59z0OX+cuUupvS3SwvAzb3nsTtUvnI1xX29Z0/nuNgKIgqd8RSB86EoHd9jTNGGiGYOtjU1C/mjtl8sIjATsI0CDYQV2ynP6cvOinama8dCYMCjWCxn9/ivo3XkHDR+9C28aZ448EtMdO2umfKceejPgexp6j8GfW4ZpqbL7rn/yMkRchCdhIgAbBRvgypfZmdEHXex6DP6+bTLJj0qo9525Y8x4aPnwHTZ9/gkhzU0xxHLHI40HCXvsj+YhjkXzkcdBOADV7NH7+Mcrvuw3hOp6rYDZrxieBnRGgQeD10W4CnsRE5N4xDYHde7d7jewTtTsJjZ9/EjUMzT9+i6ALjpjWNsqK33VPJPbph5RjToT22aIVQzNi1c89jZol86xIxxwkQAJtEKBB4CXSIQLagU7ZN92DpIMONe3Zc4cEWTxZOy2w4aN30PjphwiWbkCwrBRqSPJDohQFvqxcxBf1RGK/w5F82DHQHidYObRNj7ZMnYTWtT9bmZa5SIAEdkKABoGXR0wEOp93CdJPHwFtzwQ3D1VV0fL9V9j2wTvQtngOV1dGv9MX9nM8RYmeiaB9jujP7YqkQ45C0sFHWvLo4O+uE7W1FbUvLYmexglVdfOlxNpJQDgCNAjCtUQeQdpGSjk3T4E3JVUe0RYpDVVVoPn7r9Hyyw9o/v4bhKsqoLY0I9LSArW1GdovRrN+IWqmTQkE4IkPRH9qn6kGevVG/D96IbDXfvAmi9Gv1o3FKLv1aoQ2b7KoK0xDAiTQEQI0CB2hxbl/IaD9Muo69QnE77K7Kx85xHpJaHceQhXlCJVtRHBTKcI1ldHPLCPb6hCuq4Pa0oRIayvUYBAItkL7u3X0F7/PB/h88CYlw5uWDk9qOnzpneDLzoN2aqL2Warohk1716DiiYdQv/rFWPFxHQmQgAUEaBAsgOyGFKknD0XmxVcBHo8bymWNsRBQVWz76F1sufsmIBKJJQLXkAAJWEiABsFC2E5P5U1NR+5dD2/fVY+DBH5HoLVkLTZecxHUxgZyIQESkIQADYIkjZJFpnYbXHsTPvvGO6HwboIsbTNNZ6h8c/Q9g1btkCy+hGgaZwYmATMI0CCYQZUx4U1NQ6fhFyJt0Bmk4UIC2uef5Q/egZYfv+UZCi7sP0t2BgEaBGf0UcwqFAVx3YqQcdF4JO53kJgaqcpQAto+BhVPTkPzt1/Jvz+EoWQYjATkI0CDIF/P5FOsKAj02gsZF16OwO57yaefitsk0PDxv1CzdAGav/+KLyC2SYsTSEAOAjQIcvTJMSoT9u6DTsPOh/bTrOOBHQNL8ELUcAh1Ly9D7SsvIKi9Y8BBAiTgKAI0CI5qpzzFaOc5pJ16FpIOORKKzy+PcLcr1XaO/OWH6KmXdatXbN+ngYMESMCRBGgQHNlWeYryZeUg7eSh0ZMCHX2ctDwt+VulocqK6IFV9atXoOXXnySvhvJJgATaQ4AGoT2UOMd8Ah4PkvoeHr2rENi1F5T4gPk5mWGnBMI11dETLOtWLomeaMlBAiTgLgI0CO7qtxTVascNawdBJR9+LPz5hdu3F+awhIB2ZkRLyTrUvrAQjZ+t4d4FllBnEhIQkwANgph9oar/ENhuFkYipf9A+DK68M6CwVeGGgoheqfguy9RvXguWtf9YnAGhiMBEpCVAA2CrJ1zqe6E/fui84jRiCvsET2tkGc/dPBCiISjJ0oGS0uihqDhg3c6GIDTSYAE3EKABsEtnXZinR4Pkg/vj05nnY+4gu78bHJHPVZVNH37BaoXz0OT9tiAgwRIgATaQYAGoR2QOEV8Atp7CkpcPHx5+Ug94dToVxHakciuG6q6/cXC11eicc37iDQ3Qm1t5eZFrrsQWDAJ6CdAg6CfISMISkAJJMCbmARPWnp0Y6aEffogYc994UlOEVRx+2WpwVY0//Q9mr/6HE1ffwbt7INIYwPUpkao4XD7A3EmCZAACeyAAA0CLw13EVAUeAIJ8CSlwJOcHP0ZV9QDcd26w59fAH/XAvi7ZNn6boP2Cz60eROCmzYguKkErSXFaN2wDpGGbVETsP1nI6BG3NU7VksCJGApARoES3EzmRQENBORkAhPQgKU+AR4AoHo1xPaIwwlLi76cqQS/feJ0X/miYsD4uL/+g5EKBj9TDDS2hK9za+2NCPS3Ay1qSG6A6F2F0BtaUGkpXn7z+am6B0AbQ6gSoGKIkmABJxLgAbBub1lZSRAAiRAAiQQMwEahJjRcSEJkAAJkAAJOJcADYJze8vKSIAESIAESCBmAjQIMaPjQhIgARIgARJwLgEaBOf2lpWRAAmQAAmQQMwEaBBiRseFJEACJEACJOBcAjQIzu0tKyMBEiABEiCBmAnQIMSMjgtJgARIgARIwLkEaBCc21tWRgIkQAIkQAIxE6BBiBkdF5IACZAACZCAcwnQIDi3t6yMBEiABEiABGImQIMQMzouJAESIAESIAHnEqBBcG5vWRkJkAAJkAAJxEyABiFmdFxIAiRAAiRAAs4lQIPg3N6yMhIgARIgARKImQANQszouJAESIAESIAEnEuABsG5vWVlJEACJEACJBAzARqEmNFxIQmQAAmQAAk4lwANgnN7y8pIgARIgARIIGYCNAgxo+NCEiABEiABEnAuARoE5/aWlZEACZAACZBAzARoEGJGx4UkQAIkQAIk4FwCNAjO7S0rIwESIAESIIGYCdAgxIyOC0mABEiABEjAuQRoEJzbW1ZGAiRAAiRAAjEToEGIGR0XkgAJkAAJkIBzCdAgOLe3rIwESIAESIAEYiZAgxAzOi4kARIgARIgAecSoEFwbm9ZGQmQAAmQAAnETIAGIWZ0XEgCJEACJEACziVAg+Dc3rIyEiABEiABEoiZAA1CzOi4kARIgARIgAScS4AGwbm9ZWUkQAIkQAIkEDMBGoSY0XEhCZAACZAACTiXAA2Cc3vLykiABEiABEggZgI0CDGj40ISIAESIAEScC4BGgTn9paVkQAJkAAJkEDMBGgQYkbHhSRAAiRAAiTgXAI0CM7tLSsjARIgARIggZgJ0CDEjI4LSYAESIAESMC5BGgQnNtbVkYCJEACJEACMROgQYgZHReSAAmQAAmQgHMJ0CA4t7esjARIgARIgARiJkCDEDM6LiQBEiABEiAB5xKgQXBub1kZCZAACZAACcRMgAYhZnRcSAIkQAIkQALOJUCD4NzesjISIAESIAESiJkADULM6LiQBEiABEiABJxLgAbBub1lZSRAAiRAAiQQMwEahJjRcSEJkAAJkAAJOJcADYJze8vKSIAESIAESCBmAjQIMaPjQhIgARIgARJwLgEaBOf2lpWRAAmQAAmQQMwEaBBiRseFJEACJEACJOBcAjQIzu0tKyMBEiABEiCBmAnQIMSMjgtJgARIgARIwLkEaBCc21tWRgIkQAIkQAIxE6BBiBkdF5IACZAACZCAcwmIYxAG9NsABfnORc3KSIAESIAESEAqAlfu8sqa6XoVK3oD/HpSv+9VFbvrjcP1JEACJEACJEAC+gkoYfWCnqs/fkpvJN0G4ZeBfZcDyql6hXA9CZAACZAACZCAfgLhsNJ3t9UffaI3kn6DMKDf9VBwr14hXE8CJEACJEACJKCfgOIJFvZc+VmJ3kj6DcJJfftAVf5PrxCuJwESIAESIAES0E+guTGQ0vudd7bpjaTbIPx6bJ801e+rhqLojqW3GK4nARIgARIgAVcTUNW3dln1cX8jGBjyS/2Xgf1mARhthCDGIAESIAESIAESiI2AX1X3LFz18Xexrf7jKkMMwg/H7Zfn88eXGiGIMUiABEiABEiABGIisLVnUrdcZcmScEyr/7TIEIOgxfx5YN9HFSiXGiGKMUiABEiABEiABDpEIByKePfc/dUPfuzQqp1MNs4gDBgQryjVGwBkGiWOcUiABEiABEiABNpBQI3M3WXVJ+e3Y2a7pxhmELSMmwb16dIU9q9XgaR2K+BEEiABEiABEiCBmAkowKc9X1lzUMwBdrDQUIOg5fj5hAP3hNf7kQKkGC2W8UiABEiABEiABH5HQMHnPV9ec4ACqEZzMdwgaALX9u+bHYlXPgXQzWjBjEcCJEACJEACbiegAJGwqr6666qPTzKLhSkG4TexvwzoN0NRMEYFvGYVwLgkQAIkQAIk4DICTYpHHdpz5cevmFm3qQZBE/7l8XsnJfoSHlOgnGtmIYxNAiRAAiRAAk4moADNoUjkkvqt4WcP+OyzoNm1mm4QfitAMwpJSlKu6g0PAjxHK8DeChAwu0DGJwESIAESIAEZCagqKhVF/VJVlRW+SPC9igpUWGEMfmNlmUGQsTnUTAIkQAIkQAJuJUCD4NbOs24SIAESIAES2AkBGgReHiRAAiRAAiRAAn8hQIPAi4IESIAESIAESIAGgdcACZAACZAACZBA2wR4B6FtRpxBAiRAAiRAAq4jQIPgupazYBIgARIgARJomwANQtuMOIMESIAESIAEXEeABsF1LWfBJEACJEACJNA2ARqEthlxBgmQAAmQAAm4jgANgutazoJJgARIgARIoG0CNAhtM+IMEiABEiABEnAdARoE17WcBZMACZAACZBA2wRoENpmxBkkQAIkQAIk4DoCNAiuazkLJgESIAESIIG2CdAgtM2IM0iABEiABEjAdQRoEFzXchZMAiRAAiRAAm0T+H9pTaPtVKZggAAAAABJRU5ErkJggg==;" vertex="1" parent="1">
          <mxGeometry x="-480.1300000000002" y="481" width="28" height="27" as="geometry" />
        </mxCell>
        <mxCell id="cbpW98nKaiFozJ9u85xd-14" value="" style="group" vertex="1" connectable="0" parent="1">
          <mxGeometry x="-539" y="458" width="202" height="20" as="geometry" />
        </mxCell>
        <mxCell id="cbpW98nKaiFozJ9u85xd-15" value="OR" style="text;html=1;strokeColor=none;fillColor=none;align=center;verticalAlign=middle;whiteSpace=wrap;rounded=0;fontSize=12;" vertex="1" parent="cbpW98nKaiFozJ9u85xd-14">
          <mxGeometry width="202" height="20" as="geometry" />
        </mxCell>
        <mxCell id="cbpW98nKaiFozJ9u85xd-16" value="" style="endArrow=none;html=1;fontSize=12;fontColor=#FFFFFF;strokeColor=#CCCCCC;entryX=0.391;entryY=0.5;entryDx=0;entryDy=0;entryPerimeter=0;" edge="1" parent="cbpW98nKaiFozJ9u85xd-14" target="cbpW98nKaiFozJ9u85xd-15">
          <mxGeometry width="50" height="50" relative="1" as="geometry">
            <mxPoint x="22" y="10" as="sourcePoint" />
            <mxPoint x="67" y="10" as="targetPoint" />
          </mxGeometry>
        </mxCell>
        <mxCell id="cbpW98nKaiFozJ9u85xd-17" value="" style="endArrow=none;html=1;fontSize=12;fontColor=#FFFFFF;strokeColor=#CCCCCC;entryX=0.391;entryY=0.5;entryDx=0;entryDy=0;entryPerimeter=0;" edge="1" parent="cbpW98nKaiFozJ9u85xd-14">
          <mxGeometry width="50" height="50" relative="1" as="geometry">
            <mxPoint x="132" y="10" as="sourcePoint" />
            <mxPoint x="188.98199999999997" y="10" as="targetPoint" />
          </mxGeometry>
        </mxCell>
        <mxCell id="cbpW98nKaiFozJ9u85xd-19" value="" style="shape=image;html=1;verticalAlign=top;verticalLabelPosition=bottom;labelBackgroundColor=#ffffff;imageAspect=0;aspect=fixed;image=https://cdn4.iconfinder.com/data/icons/social-media-logos-6/512/83-facebook-128.png" vertex="1" parent="1">
          <mxGeometry x="-426" y="481" width="26" height="26" as="geometry" />
        </mxCell>
        <mxCell id="cbpW98nKaiFozJ9u85xd-21" value="&lt;font color=&quot;#000000&quot; style=&quot;font-size: 24px&quot;&gt;List Fragment&lt;/font&gt;" style="text;html=1;strokeColor=none;fillColor=none;align=center;verticalAlign=middle;whiteSpace=wrap;rounded=0;shadow=0;fontSize=24;fontColor=#FFFFFF;" vertex="1" parent="1">
          <mxGeometry x="-119" y="330" width="210" height="40" as="geometry" />
        </mxCell>
        <mxCell id="cbpW98nKaiFozJ9u85xd-22" value="" style="verticalLabelPosition=bottom;verticalAlign=top;html=1;shadow=0;dashed=0;strokeWidth=1;shape=mxgraph.android.phone2;strokeColor=#56517e;fillColor=#d0cee2;fontSize=24;align=left;" vertex="1" parent="1">
          <mxGeometry x="-119" y="379" width="200" height="390" as="geometry" />
        </mxCell>
        <mxCell id="cbpW98nKaiFozJ9u85xd-39" value="&lt;font color=&quot;#000000&quot; style=&quot;font-size: 24px&quot;&gt;Movie Fragment&lt;/font&gt;" style="text;html=1;strokeColor=none;fillColor=none;align=center;verticalAlign=middle;whiteSpace=wrap;rounded=0;shadow=0;fontSize=24;fontColor=#FFFFFF;" vertex="1" parent="1">
          <mxGeometry x="172" y="330" width="210" height="40" as="geometry" />
        </mxCell>
        <mxCell id="cbpW98nKaiFozJ9u85xd-40" value="" style="verticalLabelPosition=bottom;verticalAlign=top;html=1;shadow=0;dashed=0;strokeWidth=1;shape=mxgraph.android.phone2;strokeColor=#56517e;fillColor=#d0cee2;fontSize=24;align=left;" vertex="1" parent="1">
          <mxGeometry x="172" y="379" width="200" height="390" as="geometry" />
        </mxCell>
        <mxCell id="cbpW98nKaiFozJ9u85xd-74" value="" style="verticalLabelPosition=bottom;verticalAlign=top;html=1;shadow=0;dashed=0;strokeWidth=1;shape=rect;fontSize=10;align=left;" vertex="1" parent="1">
          <mxGeometry x="476" y="406" width="193" height="333" as="geometry" />
        </mxCell>
        <mxCell id="cbpW98nKaiFozJ9u85xd-75" value="&lt;font color=&quot;#000000&quot; style=&quot;font-size: 24px&quot;&gt;Friends Fragment&lt;/font&gt;" style="text;html=1;strokeColor=none;fillColor=none;align=center;verticalAlign=middle;whiteSpace=wrap;rounded=0;shadow=0;fontSize=24;fontColor=#FFFFFF;" vertex="1" parent="1">
          <mxGeometry x="472" y="330" width="210" height="40" as="geometry" />
        </mxCell>
        <mxCell id="cbpW98nKaiFozJ9u85xd-76" value="" style="verticalLabelPosition=bottom;verticalAlign=top;html=1;shadow=0;dashed=0;strokeWidth=1;shape=mxgraph.android.phone2;strokeColor=#56517e;fillColor=#d0cee2;fontSize=24;align=left;" vertex="1" parent="1">
          <mxGeometry x="472" y="379" width="200" height="390" as="geometry" />
        </mxCell>
        <mxCell id="cbpW98nKaiFozJ9u85xd-30" value="&lt;font style=&quot;font-size: 12px&quot; color=&quot;#b3b3b3&quot;&gt;Search..&lt;/font&gt;" style="strokeWidth=1;html=1;shadow=0;dashed=0;shape=mxgraph.android.textfield;align=left;strokeColor=#999999;pointerEvents=1;fontSize=12;" vertex="1" parent="1">
          <mxGeometry x="-97.5" y="417.5" width="159.99999999999994" height="30" as="geometry" />
        </mxCell>
        <mxCell id="cbpW98nKaiFozJ9u85xd-95" value="&lt;b&gt;Scream&amp;nbsp; &amp;nbsp;&amp;nbsp;&lt;/b&gt;&lt;br&gt;IMDB: 7,2&lt;br&gt;&amp;nbsp; &amp;nbsp; &amp;nbsp; &amp;nbsp; &amp;nbsp; &amp;nbsp; &amp;nbsp; &amp;nbsp; &amp;nbsp; &amp;nbsp; &amp;nbsp;Genre: Horror, mystery" style="rounded=1;html=1;shadow=0;dashed=0;whiteSpace=wrap;fontSize=10;fillColor=#E6E6E6;align=center;strokeColor=#999999;fontColor=#333333;" vertex="1" parent="1">
          <mxGeometry x="-107" y="458" width="176" height="62" as="geometry" />
        </mxCell>
        <mxCell id="cbpW98nKaiFozJ9u85xd-96" value="Pic" style="whiteSpace=wrap;html=1;aspect=fixed;strokeColor=#999999;" vertex="1" parent="1">
          <mxGeometry x="-97.5" y="463" width="47" height="47" as="geometry" />
        </mxCell>
        <mxCell id="cbpW98nKaiFozJ9u85xd-97" value="Movie name&lt;br&gt;IMDB rating&lt;br&gt;Genre" style="rounded=1;html=1;shadow=0;dashed=0;whiteSpace=wrap;fontSize=10;fillColor=#E6E6E6;align=center;strokeColor=#999999;fontColor=#333333;" vertex="1" parent="1">
          <mxGeometry x="-107" y="522" width="176" height="62" as="geometry" />
        </mxCell>
        <mxCell id="cbpW98nKaiFozJ9u85xd-98" value="Pic" style="whiteSpace=wrap;html=1;aspect=fixed;strokeColor=#999999;" vertex="1" parent="1">
          <mxGeometry x="-97.5" y="527" width="47" height="47" as="geometry" />
        </mxCell>
        <mxCell id="cbpW98nKaiFozJ9u85xd-99" value="Movie name&lt;br&gt;IMDB rating&lt;br&gt;Genre" style="rounded=1;html=1;shadow=0;dashed=0;whiteSpace=wrap;fontSize=10;fillColor=#E6E6E6;align=center;strokeColor=#999999;fontColor=#333333;" vertex="1" parent="1">
          <mxGeometry x="-107" y="586" width="176" height="62" as="geometry" />
        </mxCell>
        <mxCell id="cbpW98nKaiFozJ9u85xd-100" value="Pic" style="whiteSpace=wrap;html=1;aspect=fixed;strokeColor=#999999;" vertex="1" parent="1">
          <mxGeometry x="-97.5" y="591" width="47" height="47" as="geometry" />
        </mxCell>
        <mxCell id="cbpW98nKaiFozJ9u85xd-101" value="Movie name&lt;br&gt;IMDB rating&lt;br&gt;Genre" style="rounded=1;html=1;shadow=0;dashed=0;whiteSpace=wrap;fontSize=10;fillColor=#E6E6E6;align=center;strokeColor=#999999;fontColor=#333333;" vertex="1" parent="1">
          <mxGeometry x="-107" y="650" width="176" height="62" as="geometry" />
        </mxCell>
        <mxCell id="cbpW98nKaiFozJ9u85xd-102" value="Pic" style="whiteSpace=wrap;html=1;aspect=fixed;strokeColor=#999999;" vertex="1" parent="1">
          <mxGeometry x="-97.5" y="655" width="47" height="47" as="geometry" />
        </mxCell>
        <mxCell id="cbpW98nKaiFozJ9u85xd-104" value="" style="endArrow=none;html=1;fontColor=#FFFFFF;rounded=0;" edge="1" parent="1">
          <mxGeometry width="50" height="50" relative="1" as="geometry">
            <mxPoint x="52.5" y="565.5" as="sourcePoint" />
            <mxPoint x="52.5" y="545.5" as="targetPoint" />
            <Array as="points">
              <mxPoint x="62.5" y="555.5" />
            </Array>
          </mxGeometry>
        </mxCell>
        <mxCell id="cbpW98nKaiFozJ9u85xd-105" value="" style="endArrow=none;html=1;fontColor=#FFFFFF;rounded=0;" edge="1" parent="1">
          <mxGeometry width="50" height="50" relative="1" as="geometry">
            <mxPoint x="52.5" y="489" as="sourcePoint" />
            <mxPoint x="52.5" y="468.9999999999999" as="targetPoint" />
            <Array as="points">
              <mxPoint x="62.5" y="479" />
            </Array>
          </mxGeometry>
        </mxCell>
        <mxCell id="cbpW98nKaiFozJ9u85xd-106" value="" style="endArrow=none;html=1;fontColor=#FFFFFF;rounded=0;" edge="1" parent="1">
          <mxGeometry width="50" height="50" relative="1" as="geometry">
            <mxPoint x="52.5" y="627" as="sourcePoint" />
            <mxPoint x="52.5" y="606.9999999999999" as="targetPoint" />
            <Array as="points">
              <mxPoint x="62.5" y="617" />
            </Array>
          </mxGeometry>
        </mxCell>
        <mxCell id="cbpW98nKaiFozJ9u85xd-107" value="" style="endArrow=none;html=1;fontColor=#FFFFFF;rounded=0;" edge="1" parent="1">
          <mxGeometry width="50" height="50" relative="1" as="geometry">
            <mxPoint x="52.5" y="691" as="sourcePoint" />
            <mxPoint x="52.5" y="670.9999999999999" as="targetPoint" />
            <Array as="points">
              <mxPoint x="62.5" y="681" />
            </Array>
          </mxGeometry>
        </mxCell>
        <mxCell id="cbpW98nKaiFozJ9u85xd-108" value="&lt;b&gt;&lt;font style=&quot;font-size: 11px&quot;&gt;John Johnson&lt;/font&gt;&lt;/b&gt;&lt;br&gt;Movies in common: 48&lt;br&gt;Series in common: 5" style="rounded=1;html=1;shadow=0;dashed=0;whiteSpace=wrap;fontSize=10;fillColor=#E6E6E6;align=left;strokeColor=#999999;fontColor=#333333;" vertex="1" parent="1">
          <mxGeometry x="484.5" y="440" width="176" height="62" as="geometry" />
        </mxCell>
        <mxCell id="cbpW98nKaiFozJ9u85xd-116" value="" style="endArrow=none;html=1;fontColor=#FFFFFF;rounded=0;" edge="1" parent="1">
          <mxGeometry width="50" height="50" relative="1" as="geometry">
            <mxPoint x="644" y="547.5" as="sourcePoint" />
            <mxPoint x="644" y="527.5" as="targetPoint" />
            <Array as="points">
              <mxPoint x="654" y="537.5" />
            </Array>
          </mxGeometry>
        </mxCell>
        <mxCell id="cbpW98nKaiFozJ9u85xd-117" value="" style="endArrow=none;html=1;fontColor=#FFFFFF;rounded=0;" edge="1" parent="1">
          <mxGeometry width="50" height="50" relative="1" as="geometry">
            <mxPoint x="644" y="471" as="sourcePoint" />
            <mxPoint x="644" y="451" as="targetPoint" />
            <Array as="points">
              <mxPoint x="654" y="461" />
            </Array>
          </mxGeometry>
        </mxCell>
        <mxCell id="cbpW98nKaiFozJ9u85xd-120" value="&lt;font style=&quot;font-size: 11px&quot;&gt;MovieMates&lt;/font&gt;" style="text;strokeColor=none;fillColor=none;html=1;fontSize=24;fontStyle=1;verticalAlign=middle;align=center;" vertex="1" parent="1">
          <mxGeometry x="522" y="405" width="100" height="40" as="geometry" />
        </mxCell>
        <mxCell id="cbpW98nKaiFozJ9u85xd-121" value="&lt;span style=&quot;font-size: 11px&quot;&gt;&lt;b&gt;Berit Prebensen&lt;/b&gt;&lt;/span&gt;&lt;br&gt;Movies in common: 2&lt;br&gt;Series in common: 84" style="rounded=1;html=1;shadow=0;dashed=0;whiteSpace=wrap;fontSize=10;fillColor=#E6E6E6;align=left;strokeColor=#999999;fontColor=#333333;" vertex="1" parent="1">
          <mxGeometry x="484.5" y="507" width="176" height="62" as="geometry" />
        </mxCell>
        <mxCell id="cbpW98nKaiFozJ9u85xd-122" value="Add new friend" style="rounded=1;html=1;shadow=0;dashed=0;whiteSpace=wrap;fontSize=13;align=center;strokeColor=none;gradientColor=none;arcSize=30;fillColor=#007FFF;fontColor=#FFFFFF;" vertex="1" parent="1">
          <mxGeometry x="502.5" y="591" width="140" height="30" as="geometry" />
        </mxCell>
        <mxCell id="cbpW98nKaiFozJ9u85xd-123" value="Pic" style="whiteSpace=wrap;html=1;aspect=fixed;strokeColor=#999999;" vertex="1" parent="1">
          <mxGeometry x="219" y="445" width="106" height="106" as="geometry" />
        </mxCell>
        <mxCell id="cbpW98nKaiFozJ9u85xd-124" value="&lt;font style=&quot;font-size: 14px&quot;&gt;Scream&lt;/font&gt;" style="text;strokeColor=none;fillColor=none;html=1;fontSize=24;fontStyle=1;verticalAlign=middle;align=center;" vertex="1" parent="1">
          <mxGeometry x="175.5" y="552.5" width="100" height="40" as="geometry" />
        </mxCell>
        <mxCell id="cbpW98nKaiFozJ9u85xd-125" value="&lt;span style=&quot;color: rgb(51 , 51 , 51) ; font-family: &amp;#34;helvetica&amp;#34; ; font-size: 10px ; font-style: normal ; font-weight: 400 ; letter-spacing: normal ; text-align: center ; text-indent: 0px ; text-transform: none ; word-spacing: 0px ; background-color: rgb(248 , 249 , 250) ; display: inline ; float: none&quot;&gt;Year: 1996&lt;br&gt;IMDB: 7,2&lt;br&gt;&lt;/span&gt;&lt;span style=&quot;color: rgb(51 , 51 , 51) ; font-family: &amp;#34;helvetica&amp;#34; ; font-size: 10px ; font-style: normal ; font-weight: 400 ; letter-spacing: normal ; text-align: center ; text-indent: 0px ; text-transform: none ; word-spacing: 0px ; background-color: rgb(248 , 249 , 250) ; display: inline ; float: none&quot;&gt;Genre: Horror, mystery&lt;/span&gt;" style="text;whiteSpace=wrap;html=1;fontColor=#FFFFFF;" vertex="1" parent="1">
          <mxGeometry x="200" y="584" width="190" height="50" as="geometry" />
        </mxCell>
        <mxCell id="cbpW98nKaiFozJ9u85xd-126" value="" style="group;rotation=90;" vertex="1" connectable="0" parent="1">
          <mxGeometry x="170" y="620" width="202" height="20" as="geometry" />
        </mxCell>
        <mxCell id="cbpW98nKaiFozJ9u85xd-127" value="Plot" style="text;html=1;strokeColor=none;fillColor=none;align=center;verticalAlign=middle;whiteSpace=wrap;rounded=0;fontSize=12;" vertex="1" parent="cbpW98nKaiFozJ9u85xd-126">
          <mxGeometry y="10" width="202" height="20" as="geometry" />
        </mxCell>
        <mxCell id="cbpW98nKaiFozJ9u85xd-128" value="" style="endArrow=none;html=1;fontSize=12;fontColor=#FFFFFF;strokeColor=#CCCCCC;entryX=0.391;entryY=0.5;entryDx=0;entryDy=0;entryPerimeter=0;" edge="1" parent="cbpW98nKaiFozJ9u85xd-126" target="cbpW98nKaiFozJ9u85xd-127">
          <mxGeometry width="50" height="50" relative="1" as="geometry">
            <mxPoint x="22" y="20" as="sourcePoint" />
            <mxPoint x="67" y="20" as="targetPoint" />
          </mxGeometry>
        </mxCell>
        <mxCell id="cbpW98nKaiFozJ9u85xd-129" value="" style="endArrow=none;html=1;fontSize=12;fontColor=#FFFFFF;strokeColor=#CCCCCC;entryX=0.391;entryY=0.5;entryDx=0;entryDy=0;entryPerimeter=0;" edge="1" parent="cbpW98nKaiFozJ9u85xd-126">
          <mxGeometry width="50" height="50" relative="1" as="geometry">
            <mxPoint x="127" y="20" as="sourcePoint" />
            <mxPoint x="183.98199999999997" y="20" as="targetPoint" />
          </mxGeometry>
        </mxCell>
        <mxCell id="cbpW98nKaiFozJ9u85xd-130" value="&lt;div style=&quot;text-align: center&quot;&gt;&lt;span style=&quot;font-size: 10px&quot;&gt;&lt;font color=&quot;#333333&quot; face=&quot;helvetica&quot;&gt;A year after the murder of her mother, a teenage girl is terrorized by a new killer..&lt;/font&gt;&lt;/span&gt;&lt;/div&gt;" style="text;whiteSpace=wrap;html=1;fontColor=#FFFFFF;" vertex="1" parent="1">
          <mxGeometry x="192" y="647" width="168" height="50" as="geometry" />
        </mxCell>
      </root>
    </mxGraphModel>
  </diagram>
</mxfile>
